<?xml version="1.0" encoding="utf-8"?>
<!-- Svg Vector Icons : http://www.onlinewebfonts.com/icon -->
<!DOCTYPE svg PUBLIC "-//W3C//DTD SVG 1.1//EN" "http://www.w3.org/Graphics/SVG/1.1/DTD/svg11.dtd">
<svg version="1.1" xmlns="http://www.w3.org/2000/svg" xmlns:xlink="http://www.w3.org/1999/xlink" x="0px" y="0px" viewBox="0 0 1000 1000" enable-background="new 0 0 1000 1000" xml:space="preserve">
<metadata> Svg Vector Icons : http://www.onlinewebfonts.com/icon </metadata>
<g><g transform="translate(0.000000,511.000000) scale(0.100000,-0.100000)"><path style="fill:white" d="M7599.6,4839.9c-23-21-86.1-160.8-149.3-331.1c-59.3-162.7-116.7-308.1-126.3-319.6c-11.5-13.4-55.5-24.9-101.4-24.9c-44,0-168.4-23-277.5-49.8l-197.1-49.8l-237.3,250.7c-179.9,189.5-250.7,250.7-285.1,250.7c-44,0-382.8-210.5-413.4-256.4c-30.6-45.9-9.6-114.8,118.7-396.2c74.6-160.8,134-298.6,134-306.2c0-7.7-42.1-70.8-95.7-141.6c-51.7-68.9-122.5-178-156.9-241.1l-63.1-116.7l-344.5,11.5c-275.6,9.6-352.1,7.7-380.8-13.4c-49.8-36.4-130.1-451.6-99.5-514.8c17.2-34.4,97.6-72.7,348.3-166.5l327.3-120.6l11.5-132.1c5.7-70.8,30.6-200.9,53.6-287.1l42.1-158.8L5456.2,1485c-178-168.4-252.6-254.5-252.6-283.2c0-42.1,212.4-380.8,256.5-409.6c47.8-32.5,135.9-7.6,411.5,118.7c158.8,74.6,294.7,134,298.5,134c5.7,0,57.4-38.3,116.7-86.1c57.4-47.8,164.6-118.7,239.2-158.8l134-70.8l-5.7-359.8c-5.7-329.2-1.9-363.6,28.7-386.6c19.1-13.4,134-44,256.5-67l222-42.1l42.1,45.9c23,23,91.9,179.9,151.2,344.5c61.2,168.4,122.5,304.3,139.7,310c15.3,5.8,61.3,11.5,101.4,11.5c38.3,0,156.9,21.1,260.3,49.8l189.5,47.8l239.2-250.7c181.8-189.5,250.7-248.8,287.1-248.8c61.2,0,413.4,235.4,430.6,287.1c7.7,26.8-34.4,139.7-132.1,357.9l-145.4,317.7l93.8,120.6c51.7,67,122.5,178,156.9,248.8l65.1,126.3l340.6-13.4c438.3-15.3,415.3-30.6,474.6,277.5l44,229.7l-38.3,40.2c-23,21.1-176.1,88-344.5,151.2l-304.3,111l-15.3,91.9c-7.7,51.7-36.4,183.7-61.2,294.7l-47.8,200.9l248.8,235.4c197.1,187.6,248.8,246.9,248.8,287.1c0,32.5-47.8,124.4-124.4,239.2c-112.9,166.5-130.1,185.6-183.7,185.6c-32.5,0-189.5-61.2-352.1-135.9l-294.7-135.9l-130.1,97.6c-70.8,53.6-183.7,126.3-250.7,160.8l-118.7,61.2l11.5,346.4c15.3,424.9,28.7,403.8-271.7,463.1C7622.6,4880.1,7647.5,4880.1,7599.6,4839.9z M7750.8,3395c181.8-67,292.8-137.8,417.2-264.1c197.1-200.9,308.1-472.7,308.1-759.8c0-595.2-482.3-1075.5-1081.3-1077.5c-290.9,0-541.6,107.2-755.9,323.4c-338.7,340.7-417.2,811.4-206.7,1242c76.5,155,302.4,390.4,449.7,468.9C7136.5,3463.9,7488.7,3490.7,7750.8,3395z"/><path style="fill:white"  d="M3251.6,2191.2c-170.3-13.4-206.7-23-233.5-57.4c-19.1-23-34.4-59.3-36.4-82.3c0-21-15.3-189.5-32.5-371.3l-32.5-333l-220.1-74.6c-313.9-109.1-290.9-107.2-363.6-23c-210.5,243-461.2,484.2-501.4,484.2c-67,0-413.4-239.2-428.7-294.7c-7.7-32.5,32.5-139.7,143.5-380.8c86.1-185.6,155-346.4,155-359.8c0-13.4-53.6-80.4-120.6-149.3c-65.1-68.9-139.7-155-166.5-191.4l-47.8-63.2L997.1,403.8c-227.7,67-382.8,103.3-407.6,95.7c-26.8-9.6-72.7-82.3-145.4-231.6C342.6,59.3,338.8,49.7,367.5,3.8c17.2-24.9,164.6-139.7,329.2-254.5c239.2-166.5,294.7-214.3,289-245c-57.4-287.1-74.6-373.2-84.2-428.7l-13.4-67l-306.2-70.8c-413.4-97.6-445.9-109.1-468.9-153.1c-13.4-24.9-17.2-111-7.7-250.7c19.1-290.9,15.3-289,352.1-319.6c141.6-11.5,311.9-26.8,377-34.5l118.7-11.5l40.2-135.9c23-74.6,63.1-187.6,88-250.7l47.8-114.8l-290.9-277.5c-262.2-252.6-289-283.2-275.6-327.2c28.7-88,241.1-382.8,289-400c40.2-15.3,103.3,5.7,396.1,141.6l348.3,158.8l143.5-126.3c80.4-68.9,172.2-147.3,204.8-174.2l61.2-47.8L1900.4-3730c-57.4-189.5-101.4-369.4-99.5-401.9c5.7-51.7,24.9-67,197.1-156.9c195.2-103.3,266-118.7,319.6-76.6c15.3,11.5,122.5,155,237.3,315.8c170.3,243.1,212.4,292.8,245,285.2c23-3.8,122.5-23,222-42.1c99.5-17.2,200.9-36.4,223.9-40.2c36.4-5.8,49.8-49.8,130.1-380.8c72.7-306.2,97.6-378.9,132.1-401.9c32.5-23,80.4-24.9,250.7-9.6c116.7,9.6,225.8,23,243.1,28.7c45.9,19.1,65.1,107.2,89.9,421c34.5,417.2,30.6,405.7,112.9,421c38.3,7.7,153.1,44,250.7,80.4l181.8,67l86.1-91.9c313.9-340.7,445.9-467,491.8-467c45.9,0,292.8,151.2,386.6,235.4c23,21.1,42.1,57.4,42.1,78.5c0,22.9-70.8,193.3-155,378.9l-156.9,340.6l93.8,99.5c74.6,80.4,227.8,264.1,248.8,298.5c1.9,3.8,164.6-40.2,359.8-99.5c195.2-59.3,371.3-107.2,392.3-107.2c49.7,0,89.9,55.5,191.4,262.2c59.3,120.6,80.4,187.5,72.7,218.2c-7.7,32.5-105.3,112.9-317.7,262.2c-168.4,118.7-310,222-315.8,229.7c-3.8,7.7,7.7,74.6,28.7,151.2c19.1,76.6,40.2,191.4,47.9,254.5c9.6,95.7,19.1,116.7,53.6,124.4c457.4,107.2,698.5,172.2,727.2,197.1c32.5,30.6,34.5,51.7,22.9,262.2c-11.5,191.4-19.1,235.4-49.7,266c-30.6,32.5-93.8,44-386.6,70.8c-193.3,19.1-363.6,34.4-382.8,36.3c-21,0-38.3,28.7-51.7,91.9c-13.4,49.8-51.7,162.7-88,250.7l-63.1,160.8l202.9,193.3C6459,398,6485.8,426.7,6485.8,466.9c0,21-40.2,97.6-88,168.4c-162.7,239.2-178,256.4-235.4,256.4c-30.6,0-202.9-68.9-384.7-153.1l-329.2-153.1l-118.7,107.2c-63.2,57.4-153.1,134-197.1,166.5c-44,34.5-82.3,72.7-82.3,86.1c0,13.4,47.8,183.7,105.3,377c86.1,283.2,103.3,361.7,86.1,392.3c-24.9,45.9-380.8,229.7-447.8,229.7c-55.5,0-80.4-28.7-325.3-377l-189.5-269.8l-93.8,26.8c-49.8,15.3-166.5,40.2-258.4,51.7l-166.5,24.9l-90,371.3c-70.8,294.7-97.6,378.9-132.1,405.7c-23,19.1-51.7,32.5-65.1,32.5C3462.1,2208.4,3362.5,2198.9,3251.6,2191.2z M3867.8,539.6c679.4-134,1211.4-633.5,1397.1-1314.8c61.3-227.7,61.3-679.4,0-907.1c-111-401.9-386.6-794.2-719.6-1023.9c-784.6-539.7-1871.7-367.4-2447.7,386.6c-264.1,346.4-400,790.4-369.4,1201.8c59.3,817.2,631.5,1483.2,1420,1653.5C3320.4,572.2,3689.8,574.1,3867.8,539.6z"/></g></g>
</svg>